<svg width="24" height="24" viewBox="0 0 24 24" xmlns="http://www.w3.org/2000/svg">
    <g fill="none" fill-rule="evenodd">
        <path d="M6.002 20a3 3 0 0 1-1.498-5.601l-.004-3.9A7.486 7.486 0 0 1 10 3.265V3a2 2 0 1 1 4 0v.265a7.487 7.487 0 0 1 5.5 7.239v3.904c.91.525 1.5 1.5 1.5 2.592a3 3 0 0 1-3.002 3H15a3.004 3.004 0 0 1-3 3c-1.657 0-3-1.342-3-2.998L6.002 20zM11 20a1 1 0 1 0 2 0h-2zm6.5-4.664v-4.832A5.499 5.499 0 0 0 12 5a5.499 5.499 0 0 0-5.5 5.499v4.837c0 .28-.215.558-.48.626l-.27.07A1 1 0 0 0 6.001 18h11.996a1 1 0 0 0 .252-1.968l-.263-.068a.686.686 0 0 1-.487-.628z" fill="#000" fill-rule="nonzero"/>
        <path d="M17.5 13a6.5 6.5 0 1 0 0-13 6.5 6.5 0 0 0 0 13z" fill="#FFF"/>
        <path d="M17.5 11.143a4.643 4.643 0 1 1 0-9.286 4.643 4.643 0 0 1 0 9.286z" fill="#008B74"/>
    </g>
</svg>
