<svg width="215" height="74" viewBox="0 0 215 74" xmlns="http://www.w3.org/2000/svg">
    <g fill="#000" fill-rule="nonzero">
        <path d="M66.75 37.152c0-4.866 3.15-7.096 6.4-7.096 2.2 0 4.65.963 5.7 3.7.25.608-.1 1.065-.7 1.166l-.3.05c-.6.102-.85-.151-1.15-.658-.75-1.47-2-2.23-3.55-2.23-2.5 0-4.15 1.926-4.15 5.068 0 3.143 1.65 5.018 4.15 5.018 1.6 0 2.85-.76 3.6-2.332.25-.557.6-.81 1.15-.659l.3.051c.6.102.9.659.55 1.47-1.1 2.585-3.45 3.548-5.6 3.548-3.25-.05-6.4-2.078-6.4-7.096zM81.5 43.032V31.019c0-.608.35-.963.95-.963h.25c.6 0 .95.355.95.963v12.013c0 .608-.35.963-.95.963h-.25c-.6 0-.95-.355-.95-.963zM86 38.571c0-3.903 2.7-5.626 5.4-5.626s5.45 1.723 5.45 5.626c0 3.954-2.7 5.677-5.4 5.677-2.8 0-5.45-1.774-5.45-5.677zm8.75 0c0-2.382-1.35-3.852-3.35-3.852s-3.3 1.42-3.3 3.852c0 2.433 1.35 3.852 3.35 3.852 1.95 0 3.3-1.47 3.3-3.852zM98.8 42.271c-.4-.507-.2-1.013.45-1.216l.2-.05c.4-.102.7-.102 1.25.405.75.658 1.75.912 2.75.912 1.55 0 2.5-.558 2.5-1.52 0-2.484-6.95-.507-6.95-4.765 0-1.977 2-3.142 4.3-3.142 1.4 0 3.15.557 4.05 1.57.45.457.3 1.014-.3 1.167l-.2.05c-.5.152-.75-.05-1.25-.355-.7-.456-1.45-.71-2.25-.71-1.35 0-2.25.457-2.25 1.319 0 2.432 7 .405 7 4.764 0 2.027-1.9 3.396-4.6 3.396-1.9.05-3.8-.659-4.7-1.825zM109.7 38.571c0-3.345 2.2-5.626 5.4-5.626 3.1 0 5.1 2.129 5.25 5.22 0 .609-.35.964-.95.964h-7.6c.05 2.129 1.35 3.294 3.45 3.294 1.15 0 1.9-.304 2.55-.912.4-.355.65-.659 1.2-.507l.2.05c.65.153.8.508.45 1.065-.95 1.42-2.45 2.129-4.45 2.129-3.3-.05-5.5-2.28-5.5-5.677zm8.65-1.166c-.15-1.723-1.3-2.838-3.2-2.838-1.8 0-3.05.963-3.3 2.838h6.5zM122.5 37.05c0-4.206 2.6-7.045 6.4-7.045 2.45 0 4.2.811 5.2 2.535.35.608.05 1.064-.6 1.216l-.3.05c-.5.102-.85-.1-1.2-.557-.7-.912-1.7-1.368-3.1-1.368-2.55 0-4.25 2.027-4.25 5.17 0 3.193 1.65 5.17 4.25 5.17 2.4 0 3.9-1.369 4.05-4.005h-3.1c-.6 0-.95-.354-.95-.963 0-.608.35-.912.95-.912h4.4c.6 0 .95.203.95.76v.254c0 4.207-2.45 6.792-6.35 6.792-3.9 0-6.35-2.788-6.35-7.096zM147.4 34.06v8.972c0 .608-.35.963-.95.963h-.2c-.6 0-.95-.355-.95-.963v-1.065c-.5 1.267-1.7 2.23-3.5 2.23-2.95 0-4.35-1.723-4.35-5.17v-4.916c0-.608.35-.963.95-.963h.2c.6 0 .95.355.95.963v4.764c0 2.383.9 3.498 2.9 3.498s2.85-1.369 2.85-3.751V34.11c0-.608.35-.963.95-.963h.2c.6-.05.95.304.95.912zM149.9 38.571c0-3.345 2.2-5.626 5.4-5.626 3.1 0 5.1 2.129 5.25 5.22 0 .609-.35.964-.95.964H152c.05 2.129 1.35 3.294 3.45 3.294 1.15 0 1.9-.304 2.55-.912.4-.355.65-.659 1.2-.507l.2.05c.65.153.8.508.45 1.065-.95 1.42-2.45 2.129-4.45 2.129-3.35-.05-5.5-2.28-5.5-5.677zm8.65-1.166c-.15-1.723-1.3-2.838-3.2-2.838-1.8 0-3.05.963-3.3 2.838h6.5zM162.5 42.271c-.4-.507-.2-1.013.45-1.216l.2-.05c.4-.102.7-.102 1.25.405.75.658 1.75.912 2.75.912 1.55 0 2.5-.558 2.5-1.52 0-2.484-6.95-.507-6.95-4.765 0-1.977 2-3.142 4.3-3.142 1.4 0 3.15.557 4.05 1.57.45.457.3 1.014-.3 1.167l-.2.05c-.5.152-.75-.05-1.25-.355-.7-.456-1.45-.71-2.25-.71-1.35 0-2.25.457-2.25 1.319 0 2.432 7 .405 7 4.764 0 2.027-1.9 3.396-4.6 3.396-1.9.05-3.8-.659-4.7-1.825zM174.4 39.636V34.77h-.6c-.6 0-.95-.304-.95-.811 0-.507.3-.811.8-.811h.75v-1.115c0-.558.3-.912.8-1.014l.3-.101c.65-.152 1.05.152 1.05.81v1.37h2.25c.6 0 .95.303.95.81 0 .507-.35.811-.95.811h-2.3v4.613c0 2.23.6 3.04 2.2 3.04.6 0 .95.203 1 .71.05.558-.2.913-.8.963h-.55c-2.7.102-3.95-1.064-3.95-4.41zM53.25 49.266c-.8 0-1.55-.304-2.1-.913l-5.6-5.676L40 48.353c-.9.913-2.15 1.166-3.3.66-1.15-.457-1.85-1.572-1.85-2.839v-17.08c0-2.484 2-4.512 4.45-4.512h12.55c2.45 0 4.45 2.028 4.45 4.511v17.132c0 1.267-.7 2.331-1.85 2.838-.4.152-.8.203-1.2.203zM39.3 26.863c-1.25 0-2.25 1.014-2.25 2.28v17.132c0 .507.35.66.5.76.15.051.55.153.85-.151l5.6-5.779-3.75-3.8a4.448 4.448 0 0 1 0-6.235 4.21 4.21 0 0 1 5.3-.608 4.329 4.329 0 0 1 2.25-.66c1.15 0 2.2.457 3.05 1.268.8.81 1.25 1.926 1.25 3.092 0 1.165-.45 2.28-1.25 3.091l-3.75 3.802 5.6 5.677c.35.354.7.253.85.152.15-.051.5-.254.5-.76v-17.03c0-1.268-1-2.282-2.25-2.282H39.3v.051zm4 5.17c-.55 0-1.05.203-1.5.608-.85.862-.85 2.18 0 3.041l3.75 3.802 3.75-3.802c.4-.405.6-.963.6-1.52 0-.558-.2-1.115-.6-1.52-.4-.406-.95-.61-1.5-.61s-1.1.204-1.5.61c-.4.405-1.15.405-1.55 0-.4-.356-.9-.61-1.45-.61z"/>
    </g>
</svg>
