<svg width="280" height="50" viewBox="0 0 280 50" xmlns="http://www.w3.org/2000/svg">
    <g fill="none" fill-rule="evenodd">
        <text font-family="Nunito-Bold, Nunito" font-size="16" font-weight="bold" letter-spacing=".533" fill="#000">
                    <tspan x="88" y="30">Dashboard</tspan>
                </text>
        <path d="M51 27c0 1.814.537 3.545 1.524 5 .275.013 14.963-.005 14.963-.005A8.947 8.947 0 0 0 69 27a8.988 8.988 0 0 0-.488-2.93l-1.379.797a.997.997 0 0 1-1.365-.367.997.997 0 0 1 .365-1.366l1.518-.876A9 9 0 0 0 61 18.055V20c0 .552-.444.999-1 .999-.552 0-1-.443-1-1v-1.945a9 9 0 0 0-6.651 4.203l1.518.876a.997.997 0 0 1 .365 1.366.997.997 0 0 1-1.365.367l-1.38-.797A8.988 8.988 0 0 0 51 27zm17.8 6.6a1 1 0 0 1-.8.4H52a1 1 0 0 1-.8-.4A10.954 10.954 0 0 1 49 27c0-6.075 4.925-11 11-11s11 4.925 11 11c0 2.413-.78 4.71-2.2 6.6zm-7.886-5.176a2 2 0 0 1-2.828-2.829c1.437-1.437 4.76-2.532 4.76-2.532.523-.194.79.075.604.59 0 0-1.099 3.334-2.536 4.77z" fill="#008B74"/>
    </g>
</svg>
